<?xml version="1.0" encoding="iso-8859-1"?>
<!-- Generator: Adobe Illustrator 19.0.0, SVG Export Plug-In . SVG Version: 6.00 Build 0)  -->
<svg version="1.1" id="Capa_1" xmlns="http://www.w3.org/2000/svg" xmlns:xlink="http://www.w3.org/1999/xlink" x="0px" y="0px"
	 viewBox="0 0 511.908 511.908" style="enable-background:new 0 0 511.908 511.908;" xml:space="preserve">
<g>
	<polygon style="fill:#94C1FF;" points="119.978,427.924 119.978,451.919 103.981,451.919 87.984,451.919 71.987,451.919 
		71.987,427.924 	"/>
	<polygon style="fill:#94C1FF;" points="391.93,427.924 439.921,427.924 439.921,451.919 423.924,451.919 407.927,451.919 
		391.93,451.919 	"/>
	<polygon style="fill:#94C1FF;" points="127.977,491.912 255.954,491.912 383.932,491.912 383.932,507.909 359.935,507.909 
		343.938,507.909 327.941,507.909 311.944,507.909 295.947,507.909 279.95,507.909 263.953,507.909 247.956,507.909 
		231.958,507.909 215.961,507.909 199.964,507.909 183.967,507.909 167.97,507.909 151.973,507.909 127.977,507.909 	"/>
</g>
<g>
	<path style="fill:#5C9EFF;" d="M119.978,43.992C119.978,27.995,159.971,4,255.954,4S391.93,27.995,391.93,43.992
		c-5.038,0.398-9.842,0.879-14.481,1.68v-0.078l-9.679-6.562c-14.076-7.916-47.187-19.035-111.816-19.035
		c-64.473,0-97.506,11.037-111.659,19.035l-9.678,6.562v0.078C129.899,44.953,125.016,44.391,119.978,43.992z"/>
	<path style="fill:#5C9EFF;" d="M247.956,123.977c0,0-21.676-65.109-113.339-78.306v-0.077l9.678-6.562
		c14.153-7.998,47.186-19.035,111.659-19.035c64.629,0,97.74,11.119,111.815,19.035l9.679,6.562v0.078
		c-91.741,13.118-113.495,78.306-113.495,78.306h-7.999L247.956,123.977L247.956,123.977z"/>
</g>
<g>
	<path style="fill:#94C1FF;" d="M134.617,45.672c91.664,13.196,113.339,78.306,113.339,78.306s-74.385,0-117.417-55.989
		c-3.843-4.878-7.357-10.236-10.561-15.997v-7.999C125.016,44.391,129.899,44.953,134.617,45.672z"/>
	<path style="fill:#94C1FF;" d="M377.448,45.672c4.64-0.801,9.443-1.281,14.481-1.68v7.999c-3.202,5.761-6.718,11.037-10.561,15.919
		c-42.953,56.067-117.416,56.067-117.416,56.067S285.707,58.79,377.448,45.672z"/>
</g>
<path style="fill:#D7E9FF;" d="M391.766,71.589l-10.318-3.601l-0.078-0.078c-42.953,56.067-117.416,56.067-117.416,56.067h-8h-7.998
	c0,0-74.385,0-117.417-55.989l-10.404,3.601c-32.549,10.076-56.146,40.392-56.146,76.385v279.95h7.998h47.991v23.995v39.993h7.999
	h127.977h127.978h7.998v-39.993v-23.995h47.991h7.999v-279.95C447.92,111.98,424.322,81.665,391.766,71.589z"/>
<g>
	<path style="fill:#FFFFFF;" d="M134.195,72.276c-1.211-1.441-2.484-2.766-3.656-4.288l-10.404,3.601
		c-32.549,10.076-56.146,40.392-56.146,76.385v279.95h7.998h7.999v-279.95C79.986,112.707,102.662,82.942,134.195,72.276z"/>
	<polygon style="fill:#FFFFFF;" points="135.975,179.968 119.978,179.968 119.978,451.919 119.978,491.912 127.977,491.912 
		135.975,491.912 135.975,451.919 	"/>
</g>
<g>
	<path style="fill:#94C1FF;" d="M377.714,72.276c1.21-1.441,2.483-2.766,3.655-4.288l10.404,3.601
		c32.549,10.076,56.146,40.392,56.146,76.385v279.95h-7.999h-7.998v-279.95C431.923,112.707,409.247,82.942,377.714,72.276z"/>
	<polygon style="fill:#94C1FF;" points="375.933,179.968 391.93,179.968 391.93,451.919 391.93,491.912 383.932,491.912 
		375.933,491.912 375.933,451.919 	"/>
</g>
<rect x="71.984" y="427.924" style="fill:#D7E9FF;" width="15.997" height="23.995"/>
<rect x="423.944" y="427.924" style="fill:#5C9EFF;" width="15.997" height="23.995"/>
<rect x="127.974" y="491.914" style="fill:#D7E9FF;" width="16.03" height="15.997"/>
<rect x="367.914" y="491.914" style="fill:#5C9EFF;" width="16.03" height="15.997"/>
<g>
	<path style="fill:#116FFF;" d="M259.953,483.913V164.916l0.422,0.844c0.703,1.401,2.117,2.21,3.578,2.21
		c0.602,0,1.211-0.137,1.788-0.422c1.977-0.987,2.773-3.39,1.789-5.366l-7.577-15.153v-15.052c0-2.211-1.788-3.999-3.999-3.999
		c-2.21,0-3.999,1.788-3.999,3.999v351.937c0,2.211,1.789,3.999,3.999,3.999C258.165,487.912,259.953,486.124,259.953,483.913z"/>
	<path style="fill:#116FFF;" d="M115.979,427.924c0-2.211-1.789-4-3.999-4H67.988v-275.95c0-33.518,21.441-62.684,53.35-72.573
		c2.109-0.651,3.289-2.894,2.632-5.003c-0.656-2.104-2.851-3.272-5.007-2.636c-35.275,10.932-58.974,43.168-58.974,80.212v279.95
		c0,2.21,1.789,3.999,4,3.999h7.998h39.993C114.19,431.923,115.979,430.134,115.979,427.924z"/>
	<path style="fill:#116FFF;" d="M111.98,447.92h-4v-4c0-2.21-1.789-3.999-4-3.999c-2.21,0-3.999,1.789-3.999,3.999v4h-7.997v-4
		c0-2.21-1.789-3.999-4-3.999c-2.21,0-3.999,1.789-3.999,3.999v4h-7.999v-11.998c0-2.211-1.789-3.999-4-3.999
		c-2.21,0-3.999,1.788-3.999,3.999v15.997c0,2.21,1.789,3.999,3.999,3.999h39.993c2.21,0,3.999-1.789,3.999-3.999
		S114.19,447.92,111.98,447.92z"/>
	<path style="fill:#116FFF;" d="M379.932,499.91v4h-15.998v-4c0-2.211-1.788-3.999-3.999-3.999s-3.999,1.788-3.999,3.999v4h-7.999
		v-4c0-2.211-1.789-3.999-3.999-3.999c-2.211,0-3.999,1.788-3.999,3.999v4h-7.999v-4c0-2.211-1.788-3.999-3.999-3.999
		s-4,1.788-4,3.999v4h-7.998v-4c0-2.211-1.789-3.999-3.999-3.999c-2.211,0-3.999,1.788-3.999,3.999v4h-7.999v-4
		c0-2.211-1.788-3.999-3.999-3.999s-4,1.788-4,3.999v4h-7.998v-4c0-2.211-1.789-3.999-3.999-3.999c-2.211,0-3.999,1.788-3.999,3.999
		v4h-7.999v-4c0-2.211-1.789-3.999-3.999-3.999c-2.211,0-4,1.788-4,3.999v4h-7.998v-4c0-2.211-1.789-3.999-3.999-3.999
		c-2.211,0-4,1.788-4,3.999v4h-7.999v-4c0-2.211-1.789-3.999-4-3.999s-4,1.788-4,3.999v4h-7.998v-4c0-2.211-1.789-3.999-4-3.999
		s-4,1.788-4,3.999v4h-7.998v-4c0-2.211-1.789-3.999-4-3.999s-4,1.788-4,3.999v4h-7.998v-4c0-2.211-1.789-3.999-4-3.999
		s-4,1.788-4,3.999v4h-7.998v-4c0-2.211-1.789-3.999-4-3.999s-4,1.788-4,3.999v4h-7.998v-4c0-2.211-1.789-3.999-4-3.999
		s-4,1.788-4,3.999v4H131.97v-4c0-2.211-1.789-3.999-3.999-3.999c-2.211,0-4,1.788-4,3.999v7.999c0,2.21,1.789,3.999,4,3.999
		h255.954c2.21,0,3.999-1.789,3.999-3.999v-7.999c0-2.211-1.789-3.999-3.999-3.999C381.721,495.911,379.932,497.699,379.932,499.91z
		"/>
	<path style="fill:#116FFF;" d="M395.929,179.968c0-2.211-1.788-3.999-3.999-3.999s-3.999,1.788-3.999,3.999v200.05l-28.933-57.864
		c-0.992-1.977-3.382-2.772-5.366-1.789c-1.976,0.984-2.772,3.391-1.788,5.366l31.994,63.988c0.703,1.398,2.116,2.211,3.577,2.211
		c0.172,0,0.344-0.094,0.516-0.125v96.107H255.954H123.978V179.968c0-2.211-1.789-3.999-4-3.999c-2.21,0-3.999,1.788-3.999,3.999
		v247.956v23.995v39.993c0,2.21,1.789,3.999,3.999,3.999h7.999h23.996h15.997h15.997h15.997h15.997h15.997h15.998h15.997h15.997
		h15.997h15.997h15.997h15.997h15.997h23.996h7.998c2.211,0,3.999-1.789,3.999-3.999v-39.993v-23.995V179.968H395.929z"/>
	<path style="fill:#116FFF;" d="M392.945,67.762c-2.156-0.652-4.358,0.531-5.007,2.636c-0.656,2.109,0.523,4.352,2.632,5.003
		c31.908,9.89,53.35,39.056,53.35,72.573v275.95h-43.992c-2.21,0-3.999,1.789-3.999,4c0,2.21,1.789,3.999,3.999,3.999h39.993h7.999
		c2.21,0,3.999-1.789,3.999-3.999v-279.95C451.919,110.93,428.22,78.693,392.945,67.762z"/>
	<path style="fill:#116FFF;" d="M435.922,435.922v11.998h-7.998v-4c0-2.21-1.789-3.999-4-3.999s-3.999,1.789-3.999,3.999v4h-7.999
		v-4c0-2.21-1.788-3.999-3.999-3.999c-2.21,0-3.999,1.789-3.999,3.999v4h-4c-2.21,0-3.999,1.789-3.999,3.999
		s1.789,3.999,3.999,3.999h39.993c2.211,0,3.999-1.789,3.999-3.999v-15.997c0-2.211-1.788-3.999-3.999-3.999
		C437.711,431.923,435.922,433.711,435.922,435.922z"/>
	<path style="fill:#116FFF;" d="M116.112,44.664c0.047,0.25,0.062,0.496,0.148,0.727c0.102,0.258,0.25,0.473,0.398,0.703
		c0.133,0.203,0.234,0.414,0.398,0.594c0.18,0.195,0.406,0.332,0.625,0.492c0.195,0.145,0.375,0.301,0.601,0.406
		c0.242,0.117,0.516,0.156,0.781,0.222c0.211,0.051,0.391,0.156,0.609,0.172c0.477,0.035,0.883,0.121,1.359,0.16
		c-0.977-0.266-2.054-0.172-2.999,0.355c-1.93,1.074-2.625,3.508-1.555,5.437c40.672,73.198,130.539,74.046,131.445,74.046
		c0.039,0,0.07-0.02,0.102-0.02c0.39-0.012,0.781-0.062,1.164-0.191c0.047-0.016,0.078-0.051,0.117-0.066
		c0.304-0.113,0.562-0.293,0.828-0.477c0.164-0.113,0.352-0.199,0.5-0.336c0.211-0.195,0.352-0.438,0.516-0.672
		c0.133-0.191,0.281-0.355,0.383-0.562c0.102-0.223,0.133-0.465,0.195-0.707c0.07-0.273,0.156-0.531,0.164-0.816
		c0-0.051,0.031-0.098,0.031-0.148c0-0.215-0.094-0.402-0.125-0.608c-0.031-0.219-0.008-0.438-0.078-0.656
		c-0.258-0.773-6.515-19.118-25.948-38.56c-17.278-17.29-48.718-38.587-100.795-43.688c6.258-12.953,45.83-32.472,130.978-32.472
		c85.149,0,124.72,19.52,130.977,32.471c-52.077,5.101-83.524,26.397-100.81,43.688c-19.442,19.441-25.707,37.786-25.965,38.556
		c-0.07,0.219-0.047,0.441-0.078,0.664c-0.039,0.202-0.125,0.39-0.125,0.604c0,0.051,0.031,0.098,0.031,0.148
		c0.008,0.289,0.094,0.551,0.164,0.828c0.062,0.234,0.094,0.477,0.195,0.691c0.102,0.223,0.266,0.402,0.406,0.605
		c0.156,0.219,0.289,0.441,0.484,0.625c0.164,0.156,0.367,0.254,0.562,0.379c0.242,0.164,0.477,0.332,0.758,0.438
		c0.055,0.02,0.086,0.059,0.133,0.074c0.422,0.141,0.844,0.207,1.266,0.207c0.906,0,90.804-0.848,131.477-74.046
		c1.069-1.929,0.374-4.362-1.555-5.437c-0.922-0.516-1.961-0.605-2.914-0.363c0.445-0.039,0.828-0.117,1.273-0.152
		c0.219-0.016,0.406-0.121,0.609-0.172c0.266-0.065,0.539-0.104,0.773-0.222c0.234-0.105,0.414-0.262,0.617-0.41
		c0.211-0.156,0.438-0.293,0.617-0.488c0.164-0.18,0.266-0.391,0.398-0.594c0.148-0.23,0.297-0.445,0.398-0.703
		c0.085-0.23,0.101-0.48,0.147-0.73c0.039-0.223,0.133-0.43,0.133-0.668c0-0.07-0.031-0.137-0.031-0.207
		c0-0.035,0.016-0.066,0.016-0.102c-0.008-0.059-0.039-0.105-0.047-0.168C395.172,21.812,347.187,0,255.954,0
		S116.729,21.816,116.042,43.52c-0.008,0.059-0.039,0.105-0.047,0.164c0,0.035,0.016,0.066,0.016,0.102
		c0,0.07-0.031,0.137-0.031,0.207C115.979,44.23,116.073,44.437,116.112,44.664z M388.431,50.05
		c-32.275,58.087-97.779,67.93-118.229,69.593c8.015-16.474,38.346-64.625,120.627-71.495
		C389.844,48.429,388.969,49.085,388.431,50.05z M241.66,119.639c-20.458-1.663-85.922-11.518-118.182-69.589
		c-0.539-0.969-1.414-1.621-2.406-1.902C203.12,54.998,233.583,103.157,241.66,119.639z"/>
	<path style="fill:#116FFF;" d="M367.793,43.047c1.391,0,2.75-0.729,3.484-2.034c1.086-1.922,0.406-4.362-1.516-5.448
		c-12.958-7.308-44.96-19.568-113.807-19.568c-68.706,0-100.708,12.225-113.675,19.509c-1.921,1.082-2.608,3.522-1.523,5.448
		c1.085,1.925,3.531,2.604,5.444,1.526c9.889-5.556,40.376-18.484,109.754-18.484c69.519,0,99.998,12.962,109.871,18.535
		C366.45,42.883,367.122,43.047,367.793,43.047z"/>
	<path style="fill:#116FFF;" d="M283.949,131.976v47.991c0,2.211,1.789,3.999,3.999,3.999c2.211,0,3.999-1.788,3.999-3.999v-47.991
		c0-2.211-1.788-3.999-3.999-3.999C285.738,127.977,283.949,129.766,283.949,131.976z"/>
	<path style="fill:#116FFF;" d="M219.961,131.976v47.991c0,2.211,1.789,3.999,3.999,3.999c2.211,0,3.999-1.788,3.999-3.999v-47.991
		c0-2.211-1.788-3.999-3.999-3.999C221.749,127.977,219.961,129.766,219.961,131.976z"/>
	<path style="fill:#116FFF;" d="M159.878,322.153l-31.994,63.988c-0.984,1.977-0.188,4.382,1.789,5.366
		c0.578,0.281,1.187,0.422,1.789,0.422c1.461,0,2.875-0.812,3.578-2.211l31.994-63.988c0.984-1.976,0.188-4.382-1.789-5.366
		C163.275,319.389,160.87,320.177,159.878,322.153z"/>
</g>
<g>
</g>
<g>
</g>
<g>
</g>
<g>
</g>
<g>
</g>
<g>
</g>
<g>
</g>
<g>
</g>
<g>
</g>
<g>
</g>
<g>
</g>
<g>
</g>
<g>
</g>
<g>
</g>
<g>
</g>
</svg>
