<svg xmlns="http://www.w3.org/2000/svg" viewBox="0 0 480.954 480.954"><g fill="#eb805b"><path d="M108.162 79.888h-21.44c-6.52-17.816-26.128-33.416-48.648-30.216C18.122 52.52 2.602 67.928.322 87.152c-1.488 12.576 2.216 24.6 10.44 33.84 8.408 9.464 20.744 14.896 33.824 14.896h63.576c16.392 0 28.792-11.624 28.792-27.08v-.128-.056-.056-.128c0-15.768-12.928-28.552-28.792-28.552zM396.114 31.888h-21.432c-6.52-17.896-26.016-33.568-48.656-30.416-19.944 2.848-35.472 18.296-37.752 37.576-1.496 12.608 2.224 24.656 10.472 33.936 8.424 9.472 20.736 14.904 33.792 14.904h63.576c16.32 0 28.84-11.608 28.84-27.072v-.24-.104-.112-.24c0-15.608-13.056-28.232-28.84-28.232z"/></g><g fill="#e66032"><path d="M377.202 346.088c0-75.176-60.944-138.2-136.128-138.2s-136.12 64.056-136.12 139.24c0 6.144.552 12.888 1.336 21.2h269.568c.792-8.312 1.344-16.096 1.344-22.24zM240.954 143.888c-4.424 0-8-3.576-8-8v-48c0-4.424 3.576-8 8-8 4.424 0 8 3.576 8 8v48c0 4.424-3.576 8-8 8zM240.954 191.888c-4.424 0-8-3.576-8-8v-16c0-4.424 3.576-8 8-8 4.424 0 8 3.576 8 8v16c0 4.424-3.576 8-8 8zM395.298 205.544a7.978 7.978 0 01-5.656-2.344 7.991 7.991 0 010-11.312l29.256-29.256c3.128-3.128 8.184-3.128 11.312 0s3.128 8.184 0 11.312L400.954 203.2a7.978 7.978 0 01-5.656 2.344zM361.354 239.488a7.978 7.978 0 01-5.656-2.344 7.991 7.991 0 010-11.312l11.32-11.32c3.128-3.128 8.184-3.128 11.312 0s3.128 8.184 0 11.312l-11.32 11.32a7.945 7.945 0 01-5.656 2.344zM472.954 327.888h-24c-4.424 0-8-3.576-8-8s3.576-8 8-8h24c4.424 0 8 3.576 8 8s-3.576 8-8 8zM416.954 327.888h-16c-4.424 0-8-3.576-8-8s3.576-8 8-8h16c4.424 0 8 3.576 8 8s-3.576 8-8 8zM32.954 327.888h-24c-4.424 0-8-3.576-8-8s3.576-8 8-8h24c4.424 0 8 3.576 8 8s-3.576 8-8 8zM80.954 327.888h-16c-4.424 0-8-3.576-8-8s3.576-8 8-8h16c4.424 0 8 3.576 8 8s-3.576 8-8 8zM102.61 205.544a7.978 7.978 0 01-5.656-2.344l-29.256-29.256c-3.128-3.128-3.128-8.184 0-11.312s8.184-3.128 11.312 0l29.256 29.256a7.991 7.991 0 010 11.312 7.978 7.978 0 01-5.656 2.344z"/><path d="M136.554 239.488a7.978 7.978 0 01-5.656-2.344l-11.32-11.32c-3.128-3.128-3.128-8.184 0-11.312s8.184-3.128 11.312 0l11.32 11.32a7.991 7.991 0 010 11.312 7.945 7.945 0 01-5.656 2.344z"/></g><g fill="#ad4826"><path d="M280.954 383.888h-272c-4.424 0-8-3.576-8-8s3.576-8 8-8h272c4.424 0 8 3.576 8 8s-3.576 8-8 8zM472.954 383.888h-144c-4.424 0-8-3.576-8-8s3.576-8 8-8h144c4.424 0 8 3.576 8 8s-3.576 8-8 8zM416.954 431.888h-208c-4.424 0-8-3.576-8-8s3.576-8 8-8h208c4.424 0 8 3.576 8 8s-3.576 8-8 8zM160.954 431.888h-80c-4.424 0-8-3.576-8-8s3.576-8 8-8h80c4.424 0 8 3.576 8 8s-3.576 8-8 8zM368.954 479.888h-56c-4.424 0-8-3.576-8-8s3.576-8 8-8h56c4.424 0 8 3.576 8 8s-3.576 8-8 8zM264.954 479.888h-144c-4.424 0-8-3.576-8-8s3.576-8 8-8h144c4.424 0 8 3.576 8 8s-3.576 8-8 8z"/></g></svg>