<svg xmlns="http://www.w3.org/2000/svg" viewBox="0 0 480 480"><path d="M375.08 353.342c0-72.392-58.688-133.08-131.08-133.08s-131.08 61.688-131.08 134.08c0 5.92.528 12.416 1.288 20.416h259.584c.76-8 1.288-15.496 1.288-21.416z" fill="#fcb641"/><g fill="#bd8931"><path d="M280 390.758H8c-4.424 0-8-3.584-8-8s3.576-8 8-8h272c4.424 0 8 3.584 8 8s-3.576 8-8 8zM472 390.758H328c-4.424 0-8-3.584-8-8s3.576-8 8-8h144c4.424 0 8 3.584 8 8s-3.576 8-8 8zM416 430.758H208c-4.424 0-8-3.584-8-8s3.576-8 8-8h208c4.424 0 8 3.584 8 8s-3.576 8-8 8z"/></g><g fill="#fcb641"><path d="M240 142.758c-4.424 0-8-3.584-8-8v-48c0-4.416 3.576-8 8-8 4.424 0 8 3.584 8 8v48c0 4.416-3.576 8-8 8zM240 190.758c-4.424 0-8-3.584-8-8v-16c0-4.416 3.576-8 8-8 4.424 0 8 3.584 8 8v16c0 4.416-3.576 8-8 8zM394.344 204.414a7.978 7.978 0 01-5.656-2.344c-3.128-3.128-3.128-8.192 0-11.312l29.256-29.256c3.128-3.128 8.184-3.128 11.312 0s3.128 8.192 0 11.312L400 202.07a7.978 7.978 0 01-5.656 2.344zM360.4 238.358a7.978 7.978 0 01-5.656-2.344 8 8 0 010-11.32l11.32-11.312c3.128-3.12 8.184-3.12 11.312 0s3.128 8.192 0 11.32l-11.32 11.312a7.978 7.978 0 01-5.656 2.344zM472 326.758h-24c-4.424 0-8-3.584-8-8s3.576-8 8-8h24c4.424 0 8 3.584 8 8s-3.576 8-8 8zM416 326.758h-16c-4.424 0-8-3.584-8-8s3.576-8 8-8h16c4.424 0 8 3.584 8 8s-3.576 8-8 8zM40 326.758H16c-4.424 0-8-3.584-8-8s3.576-8 8-8h24c4.424 0 8 3.584 8 8s-3.576 8-8 8zM88 326.758H72c-4.424 0-8-3.584-8-8s3.576-8 8-8h16c4.424 0 8 3.584 8 8s-3.576 8-8 8zM101.656 204.414A7.978 7.978 0 0196 202.07l-29.256-29.256c-3.128-3.12-3.128-8.184 0-11.312s8.184-3.128 11.312 0l29.256 29.256c3.128 3.12 3.128 8.184 0 11.312a7.978 7.978 0 01-5.656 2.344zM135.6 238.358a8.003 8.003 0 01-5.656-2.336l-11.32-11.312a8 8 0 010-11.32c3.128-3.128 8.184-3.12 11.312 0l11.32 11.312a8 8 0 010 11.32 8.003 8.003 0 01-5.656 2.336z"/></g><g fill="#bd8931"><path d="M160 430.758H80c-4.424 0-8-3.584-8-8s3.576-8 8-8h80c4.424 0 8 3.584 8 8s-3.576 8-8 8zM368 478.758h-56c-4.424 0-8-3.584-8-8s3.576-8 8-8h56c4.424 0 8 3.584 8 8s-3.576 8-8 8z"/></g><g fill="#fee8c2"><path d="M417.56 38.758c-4.632-24-26.624-41.128-51.576-36.864-17.592 3-32.104 15.024-35.752 32.488-6.008 28.84 15.84 52.376 43.616 52.376h71.384C460.016 86.758 472 75.694 472 60.91v2.304c0-14.776-11.984-24.456-26.768-24.456H417.56zM96.328 86.758c-4.632-24-26.624-38.352-51.576-34.096C27.16 55.662 12.648 70.294 9 87.766c-6.008 28.84 15.84 54.992 43.616 54.992H124c14.784 0 26.768-12.296 26.768-27.08v-1.08c0-14.784-11.984-27.848-26.768-27.848H96.328v.008z"/></g><path d="M264 478.758H120c-4.424 0-8-3.584-8-8s3.576-8 8-8h144c4.424 0 8 3.584 8 8s-3.576 8-8 8z" fill="#bd8931"/></svg>